<svg width="11" height="17" viewBox="0 0 11 17" fill="none" xmlns="http://www.w3.org/2000/svg">
<path fill-rule="evenodd" clip-rule="evenodd" d="M2.49298 15.415H8.35125V16.5866H2.49298V15.415Z" fill="white"/>
<path fill-rule="evenodd" clip-rule="evenodd" d="M1.32131 6.62758V8.38506C1.32131 10.6392 3.16801 12.4859 5.4221 12.4859C7.6762 12.4859 9.52289 10.6392 9.52289 8.38506V6.62758H10.6945V8.38506C10.6945 11.2862 8.32329 13.6575 5.4221 13.6575C2.52092 13.6575 0.149658 11.2862 0.149658 8.38506V6.62758H1.32131Z" fill="white"/>
<path fill-rule="evenodd" clip-rule="evenodd" d="M6.0079 12.4859V16.5866H4.83624V12.4859H6.0079Z" fill="white"/>
<path d="M5.42214 10.7284C5.03551 10.7275 4.653 10.6489 4.29732 10.4973C3.94164 10.3457 3.62004 10.1242 3.35161 9.84597C2.80209 9.29178 2.49353 8.54308 2.493 7.76263V3.69845C2.4915 3.31337 2.56624 2.9318 2.71291 2.57574C2.85958 2.21969 3.07529 1.89619 3.34758 1.62389C3.61988 1.3516 3.94338 1.13589 4.29943 0.989223C4.65549 0.842552 5.03706 0.767812 5.42214 0.769313C7.06465 0.769313 8.35128 2.05594 8.35128 3.69845V7.76263C8.35128 9.39782 7.03719 10.7284 5.42214 10.7284Z" fill="white"/>
</svg>
