<svg width="30" height="30" viewBox="0 0 30 30" fill="none" xmlns="http://www.w3.org/2000/svg">
<path d="M15 9.43497C16.5139 9.43497 17.8038 9.95913 18.8699 11.0075C19.936 12.0558 20.4691 13.3138 20.4691 14.7814C20.4691 16.2491 19.936 17.5071 18.8699 18.5554C17.8038 19.6038 16.5139 20.1279 15 20.1279C13.4861 20.1279 12.1962 19.6038 11.1301 18.5554C10.064 17.5071 9.53092 16.2491 9.53092 14.7814C9.53092 13.3138 10.064 12.0558 11.1301 11.0075C12.1962 9.95913 13.4861 9.43497 15 9.43497ZM27.1855 13.4606H30V16.1023H27.1855C26.887 18.9119 25.7249 21.3125 23.6994 23.3044C21.6738 25.2962 19.2324 26.4598 16.3753 26.7953V29.5629H13.6247V26.7953C10.8102 26.4598 8.37953 25.2962 6.33262 23.3044C4.28571 21.3125 3.11301 18.9119 2.8145 16.1023H0V13.4606H2.8145C3.11301 10.651 4.28571 8.25035 6.33262 6.25853C8.37953 4.2667 10.8102 3.10306 13.6247 2.76759V0H16.3753V2.76759C19.2324 3.10306 21.6738 4.2667 23.6994 6.25853C25.7249 8.25035 26.887 10.651 27.1855 13.4606ZM15.032 24.1535C17.6759 24.1535 19.9254 23.2415 21.7804 21.4174C23.6354 19.5933 24.5629 17.3813 24.5629 14.7814C24.5629 12.1816 23.6354 9.96962 21.7804 8.14552C19.9254 6.32143 17.6759 5.40938 15.032 5.40938C12.3881 5.40938 10.1279 6.32143 8.2516 8.14552C6.37527 9.96962 5.4371 12.1816 5.4371 14.7814C5.4371 17.3813 6.37527 19.5933 8.2516 21.4174C10.1279 23.2415 12.3881 24.1535 15.032 24.1535Z" fill="white"/>
</svg>
