<svg width="43" height="37" viewBox="0 0 43 37" fill="none" xmlns="http://www.w3.org/2000/svg">
    <rect x="22.9589" y="11.8834" width="8.80297" height="8.1296" fill="#FFFFFF"/>
    <ellipse cx="16.6488" cy="21.4103" rx="11.9353" ry="12.0174" fill="#FFFFFF"/>
    <path d="M31.7588 0.56958H25.4096V8.93706C22.7698 7.00731 19.5855 5.96888 16.3175 5.97204C14.252 5.96841 12.207 6.38232 10.305 7.18898C8.47029 7.96516 6.80339 9.09064 5.39683 10.503C3.98624 11.9116 2.86203 13.581 2.08659 15.4186C1.28127 17.3237 0.868026 19.3719 0.871605 21.4407C0.868026 23.5095 1.28127 25.5578 2.08659 27.4629C2.86156 29.3004 3.98505 30.9699 5.39479 32.3789C6.80155 33.791 8.4684 34.9162 10.303 35.6925C12.205 36.4991 14.25 36.913 16.3155 36.9094C18.3809 36.913 20.4259 36.4991 22.3279 35.6925C24.1624 34.9164 25.8292 33.7911 27.2356 32.3789C28.6457 30.9701 29.7694 29.3005 30.5443 27.4629C31.3497 25.5578 31.7629 23.5095 31.7593 21.4407V18.6934H25.4101V21.4407C25.4101 26.4637 21.3303 30.5474 16.318 30.5474C11.3057 30.5474 7.22591 26.4611 7.22591 21.4407C7.22591 16.4203 11.3057 12.334 16.3205 12.334H31.7619L31.7588 0.56958Z" fill="#2E3192"/>
    <path d="M42.7363 12.332H31.7588V18.6914H42.7363V12.332Z" fill="#ED1C24"/>
    <path d="M31.7588 0.56958H25.4095V12.332H31.7588V0.56958Z" fill="#ED1C24"/>
</svg>
