<svg width="15" height="17" viewBox="0 0 15 17" fill="none" xmlns="http://www.w3.org/2000/svg">
<path fill-rule="evenodd" clip-rule="evenodd" d="M5.1748 1.23975C5.1748 0.911827 5.45463 0.645996 5.7998 0.645996H9.13314C9.47832 0.645996 9.75814 0.911827 9.75814 1.23975C9.75814 1.56767 9.47832 1.8335 9.13314 1.8335H5.7998C5.45463 1.8335 5.1748 1.56767 5.1748 1.23975ZM0.174805 9.15641C0.174805 5.33069 3.43939 2.22933 7.46647 2.22933C11.4936 2.22933 14.7581 5.33069 14.7581 9.15641C14.7581 12.9822 11.4936 16.0835 7.46647 16.0835C7.12129 16.0835 6.84147 15.8177 6.84147 15.4897C6.84147 15.1618 7.12129 14.896 7.46647 14.896C10.8032 14.896 13.5081 12.3263 13.5081 9.15641C13.5081 5.98653 10.8032 3.41683 7.46647 3.41683C4.12975 3.41683 1.4248 5.98653 1.4248 9.15641C1.4248 10.8706 2.21503 12.4087 3.47035 13.4613C3.72914 13.6783 3.75377 14.0535 3.52535 14.2993C3.29693 14.5452 2.90197 14.5686 2.64318 14.3516C1.13043 13.0831 0.174805 11.2254 0.174805 9.15641ZM7.46647 5.396C7.81165 5.396 8.09147 5.66183 8.09147 5.98975V8.91047L9.57508 10.3199C9.81916 10.5518 9.81916 10.9277 9.57508 11.1596C9.331 11.3915 8.93527 11.3915 8.6912 11.1596L7.02453 9.57626C6.90732 9.46491 6.84147 9.31389 6.84147 9.15641V5.98975C6.84147 5.66183 7.12129 5.396 7.46647 5.396Z" fill="#FFEA00"/>
</svg>
