<svg width="18" height="11" viewBox="0 0 18 11" fill="none" xmlns="http://www.w3.org/2000/svg">
<path d="M16.713 0.246414L9.41351 8.46791L2.11402 0.246414C1.9836 0.0992259 1.80853 0.0168241 1.62622 0.0168241C1.44391 0.0168241 1.26884 0.0992259 1.13842 0.246414C1.07527 0.317903 1.0251 0.403233 0.990854 0.497406C0.956606 0.591579 0.938965 0.692702 0.938965 0.794851C0.938965 0.897 0.956606 0.998122 0.990854 1.0923C1.0251 1.18647 1.07527 1.2718 1.13842 1.34329L8.90381 10.0913C9.04018 10.2449 9.22308 10.3308 9.41351 10.3308C9.60395 10.3308 9.78685 10.2449 9.92322 10.0913L17.6886 1.34498C17.7522 1.27343 17.8027 1.18789 17.8373 1.09341C17.8718 0.998923 17.8896 0.897407 17.8896 0.794851C17.8896 0.692295 17.8718 0.590778 17.8373 0.496293C17.8027 0.401808 17.7522 0.316269 17.6886 0.244726C17.5582 0.0975377 17.3831 0.0151367 17.2008 0.0151367C17.0185 0.0151367 16.8434 0.0975377 16.713 0.244726L16.713 0.246414Z" fill="#141414"/>
</svg>
