<svg width="18" height="11" viewBox="0 0 18 11" fill="none" xmlns="http://www.w3.org/2000/svg">
<path d="M1.66907 10.0939L8.96857 1.87242L16.2681 10.0939C16.3985 10.2411 16.5736 10.3235 16.7559 10.3235C16.9382 10.3235 17.1132 10.2411 17.2437 10.0939C17.3068 10.0224 17.357 9.9371 17.3912 9.84293C17.4255 9.74875 17.4431 9.64763 17.4431 9.54548C17.4431 9.44333 17.4255 9.34221 17.3912 9.24804C17.357 9.15386 17.3068 9.06853 17.2437 8.99704L9.47827 0.249043C9.3419 0.0954578 9.159 0.00950027 8.96857 0.00950029C8.77813 0.00950031 8.59523 0.0954579 8.45886 0.249043L0.69347 8.99536C0.629875 9.0669 0.57933 9.15244 0.544817 9.24693C0.510303 9.34141 0.492523 9.44293 0.492523 9.54548C0.492523 9.64804 0.510303 9.74956 0.544817 9.84404C0.57933 9.93853 0.629875 10.0241 0.69347 10.0956C0.823889 10.2428 0.998964 10.3252 1.18127 10.3252C1.36358 10.3252 1.53866 10.2428 1.66907 10.0956L1.66907 10.0939Z" fill="#444444"/>
</svg>
