<svg width="24" height="24" viewBox="0 0 24 24" fill="none" xmlns="http://www.w3.org/2000/svg">
<path fill-rule="evenodd" clip-rule="evenodd" d="M11.1791 21.7046C10.8319 22.0518 10.2691 22.0518 9.92197 21.7046L1.12242 12.9051C0.775285 12.558 0.775285 11.9951 1.12242 11.648L9.92197 2.84846C10.2691 2.50132 10.8319 2.50132 11.1791 2.84846C11.5262 3.19559 11.5262 3.7584 11.1791 4.10553L3.00804 12.2766L11.1791 20.4476C11.5262 20.7947 11.5262 21.3575 11.1791 21.7046Z" fill="#2D2D2D"/>
<path fill-rule="evenodd" clip-rule="evenodd" d="M22.7531 12.2766C22.7531 12.7675 22.3551 13.1654 21.8642 13.1654L1.75097 13.1654C1.26005 13.1654 0.86208 12.7675 0.862079 12.2766C0.86208 11.7856 1.26005 11.3877 1.75097 11.3877L21.8642 11.3877C22.3551 11.3877 22.7531 11.7856 22.7531 12.2766Z" fill="#2D2D2D"/>
</svg>
