<?xml version="1.0" encoding="UTF-8"?>
<svg version="1.1" xmlns="http://www.w3.org/2000/svg" width="1024" height="500">
<path d="M0 0 C337.92 0 675.84 0 1024 0 C1024 165 1024 330 1024 500 C686.08 500 348.16 500 0 500 C0 335 0 170 0 0 Z " fill="#FEFEFE" transform="translate(0,0)"/>
<path d="M0 0 C14.85 0 29.7 0 45 0 C45 27.39 45 54.78 45 83 C70.41 83 95.82 83 122 83 C122 97.85 122 112.7 122 128 C96.26 128 70.52 128 44 128 C44 138.56 44 149.12 44 160 C41.66448218 175.18086585 41.66448218 175.18086585 38.875 182.375 C38.56788086 183.18026123 38.26076172 183.98552246 37.94433594 184.81518555 C32.60370835 198.44564199 25.56541052 209.92659586 16 221 C15.35546875 221.74765625 14.7109375 222.4953125 14.046875 223.265625 C-2.89035204 241.38109392 -29.09412829 254.20483498 -53.89208984 255.10498047 C-83.66334129 255.82630048 -109.68936106 250.53139366 -133 231 C-134.00804687 230.15566406 -135.01609375 229.31132812 -136.0546875 228.44140625 C-155.47273106 211.66665658 -168.48924391 187.48877093 -172 162 C-172.2906897 157.64174829 -172.3338475 153.30445696 -172.3125 148.9375 C-172.30758545 147.74809814 -172.3026709 146.55869629 -172.29760742 145.33325195 C-171.96611638 120.27422927 -164.04327146 97.49081033 -148 78 C-147.28972656 77.13632813 -146.57945312 76.27265625 -145.84765625 75.3828125 C-132.51562949 59.90512502 -116.07039413 49.76409861 -97 43 C-96.14148438 42.68289062 -95.28296875 42.36578125 -94.3984375 42.0390625 C-69.55714193 33.64785564 -41.44660607 37.39262062 -18 48 C-4.04867076 54.95132924 -4.04867076 54.95132924 -1 58 C-0.67 38.86 -0.34 19.72 0 0 Z " fill="#2F3192" transform="translate(538,122)"/>
<path d="M0 0 C1.72879143 -0.00065712 1.72879143 -0.00065712 3.49250793 -0.00132751 C7.26381979 0.00074569 11.03467497 0.02400763 14.8059082 0.04760742 C17.43577329 0.05320859 20.06564152 0.05747622 22.69551086 0.06047058 C28.8859329 0.06974978 35.07619369 0.09430683 41.26654512 0.12451905 C48.32105667 0.15819254 55.37557641 0.17458142 62.43014848 0.18960536 C76.92659006 0.22086076 91.42285765 0.27582038 105.91918945 0.34057617 C105.91918945 15.19057617 105.91918945 30.04057617 105.91918945 45.34057617 C91.39918945 45.34057617 76.87918945 45.34057617 61.91918945 45.34057617 C62.03696523 54.06023281 62.03696523 54.06023281 62.18945312 62.77929688 C62.24135769 70.46507942 61.42072746 77.07190013 58.91918945 84.34057617 C58.61867676 85.22608154 58.31816406 86.11158691 58.00854492 87.02392578 C55.70079563 93.56523377 52.14896944 98.88308462 47.91918945 104.34057617 C47.37262695 105.05342773 46.82606445 105.7662793 46.26293945 106.50073242 C36.57270537 118.36212744 22.35084483 124.96796845 7.60668945 128.02807617 C-12.34214393 129.71865527 -29.4397718 124.9902184 -44.93237305 111.93823242 C-57.2095056 100.42207916 -65.07183917 85.06920308 -66.3190918 68.09838867 C-66.70966467 48.98087434 -60.29177552 32.2604222 -47.08081055 18.34057617 C-34.0761983 5.84206559 -17.8521047 -0.18099515 0 0 Z " fill="#FDFDFE" transform="translate(476.080810546875,204.659423828125)"/>
<path d="M0 0 C14.85 0 29.7 0 45 0 C45 27.39 45 54.78 45 83 C70.41 83 95.82 83 122 83 C122 97.85 122 112.7 122 128 C96.26 128 70.52 128 44 128 C44 113.15 44 98.3 44 83 C29.48 83 14.96 83 0 83 C0 55.61 0 28.22 0 0 Z " fill="#EC1F27" transform="translate(538,122)"/>
</svg>
