<?xml version="1.0" encoding="UTF-8"?>
<svg version="1.1" xmlns="http://www.w3.org/2000/svg" width="158" height="54">
<path d="M0 0 C2.97 0 5.94 0 9 0 C9 4.95 9 9.9 9 15 C13.29 15 17.58 15 22 15 C22 17.97 22 20.94 22 24 C17.71 24 13.42 24 9 24 C8.9175 25.340625 8.835 26.68125 8.75 28.0625 C8.06320611 34.1291794 6.05842442 38.09595741 1.5 42.3125 C-4.84423411 46.59485802 -10.40099222 46.99659118 -18 46 C-23.05483239 44.01885532 -26.78396627 40.99162799 -29.5625 36.3125 C-32.07201882 30.31498025 -31.88849907 23.88762198 -30 17.75 C-26.636626 13.12536076 -22.49382409 8.8312747 -17 7 C-15.21120198 6.8809314 -13.4177144 6.82477887 -11.625 6.8125 C-10.22121094 6.79123047 -10.22121094 6.79123047 -8.7890625 6.76953125 C-5.83881846 7.01331892 -3.67635888 7.76887492 -1 9 C-0.67 6.03 -0.34 3.06 0 0 Z " fill="#2F3292" transform="translate(32,4)"/>
<path d="M0 0 C1.98 0 3.96 0 6 0 C6.33 2.97 6.66 5.94 7 9 C7.99 8.01 8.98 7.02 10 6 C14.69263371 5.59028227 19.28126391 5.87012653 24 6 C24 12.93 24 19.86 24 27 C22.02 27 20.04 27 18 27 C17.505 24.525 17.505 24.525 17 22 C16.0925 22.061875 15.185 22.12375 14.25 22.1875 C10.71017358 21.98327924 9.55068845 21.35448165 7 19 C6.34 19.99 5.68 20.98 5 22 C2.5390625 22.36328125 2.5390625 22.36328125 -0.375 22.3125 C-1.33148438 22.30863281 -2.28796875 22.30476563 -3.2734375 22.30078125 C-6.02253467 21.99751408 -7.67350256 21.45996905 -10 20 C-12.09679403 17.30412197 -11.99510821 15.907056 -11.8125 12.4375 C-11 9 -11 9 -9.9375 7.0625 C-6.72427107 5.30040672 -3.6157826 5.82217463 0 6 C0 4.02 0 2.04 0 0 Z M-5 10 C-6.29633621 11.06645115 -6.29633621 11.06645115 -6.0625 13.5625 C-6.041875 14.366875 -6.02125 15.17125 -6 16 C-4.34385343 16.38218767 -2.67542976 16.71395102 -1 17 C0.29633621 15.93354885 0.29633621 15.93354885 0.0625 13.4375 C0.041875 12.633125 0.02125 11.82875 0 11 C-1.65614657 10.61781233 -3.32457024 10.28604898 -5 10 Z M13 10 C11.70366379 11.06645115 11.70366379 11.06645115 11.9375 13.5625 C11.958125 14.366875 11.97875 15.17125 12 16 C13.65614657 16.38218767 15.32457024 16.71395102 17 17 C18.29633621 15.93354885 18.29633621 15.93354885 18.0625 13.4375 C18.041875 12.633125 18.02125 11.82875 18 11 C16.34385343 10.61781233 14.67542976 10.28604898 13 10 Z " fill="#C0203D" transform="translate(75,16)"/>
<path d="M0 0 C1.03125 0.00322266 2.0625 0.00644531 3.125 0.00976562 C4.74535156 0.02233398 4.74535156 0.02233398 6.3984375 0.03515625 C8.03039063 0.04192383 8.03039063 0.04192383 9.6953125 0.04882812 C12.38807539 0.06063849 15.08072938 0.07710847 17.7734375 0.09765625 C17.7734375 2.73765625 17.7734375 5.37765625 17.7734375 8.09765625 C15.1334375 8.09765625 12.4934375 8.09765625 9.7734375 8.09765625 C9.8971875 9.64453125 9.8971875 9.64453125 10.0234375 11.22265625 C9.7289699 15.78690403 8.73399478 17.6570086 5.7734375 21.09765625 C2.12798141 23.20818346 -1.05890985 23.53178673 -5.2265625 23.09765625 C-8.67929923 21.65232459 -10.00284592 20.44480266 -12.0390625 17.28515625 C-13.36239412 13.73305559 -13.91328689 11.83648905 -13.2265625 8.09765625 C-9.48780772 2.54097484 -6.78604019 -0.03728594 0 0 Z " fill="#FAF9FC" transform="translate(22.2265625,18.90234375)"/>
<path d="M0 0 C2.97 0 5.94 0 9 0 C9 4.95 9 9.9 9 15 C13.29 15 17.58 15 22 15 C22 17.97 22 20.94 22 24 C17.38 24 12.76 24 8 24 C8 21.03 8 18.06 8 15 C5.36 15 2.72 15 0 15 C0 10.05 0 5.1 0 0 Z " fill="#EC1C24" transform="translate(32,4)"/>
<path d="M0 0 C12.34550099 -0.49382004 12.34550099 -0.49382004 15.38671875 1.80078125 C17 4 17 4 17.5625 7.4375 C17 11 17 11 14.875 13.9375 C11.56851204 16.30954571 9.9760803 16.46233492 6 16 C5.67 17.65 5.34 19.3 5 21 C3.35 21 1.7 21 0 21 C0 14.07 0 7.14 0 0 Z M7 4 C6.34 4.66 5.68 5.32 5 6 C5.32041397 8.60280568 5.32041397 8.60280568 6 11 C7.65 11 9.3 11 11 11 C11.69159401 9.15274948 11.69159401 9.15274948 12 7 C11.34 6.01 10.68 5.02 10 4 C9.01 4 8.02 4 7 4 Z " fill="#772867" transform="translate(123,22)"/>
<path d="M0 0 C9.765625 -0.48828125 9.765625 -0.48828125 13 0 C15.7417852 2.67896197 16.85465741 4.2248395 17.5625 8 C16.79301948 12.10389613 15.32878632 13.53959272 12 16 C8.6875 16.3125 8.6875 16.3125 6 16 C5.67 17.65 5.34 19.3 5 21 C3.35 21 1.7 21 0 21 C0 14.07 0 7.14 0 0 Z M5 5 C5 6.65 5 8.3 5 10 C7.475 10.495 7.475 10.495 10 11 C10.66 9.68 11.32 8.36 12 7 C11.34 6.01 10.68 5.02 10 4 C7.0745356 3.7763932 7.0745356 3.7763932 5 5 Z " fill="#672A70" transform="translate(141,22)"/>
<path d="M0 0 C0.88429688 -0.02578125 1.76859375 -0.0515625 2.6796875 -0.078125 C5.125 0.25 5.125 0.25 6.93359375 1.34765625 C8.72327724 4.20528202 8.41139485 6.60803997 8.3125 9.9375 C8.28542969 11.11699219 8.25835937 12.29648437 8.23046875 13.51171875 C8.19566406 14.41535156 8.16085938 15.31898437 8.125 16.25 C6.18818839 16.33107583 4.2504066 16.38922475 2.3125 16.4375 C1.23355469 16.47230469 0.15460938 16.50710937 -0.95703125 16.54296875 C-3.875 16.25 -3.875 16.25 -5.73828125 14.8984375 C-7.35148428 12.55901592 -7.30151028 11.02231681 -6.875 8.25 C-3.68737635 6.12491756 -1.60987777 5.7479837 2.125 5.25 C-0.185 5.25 -2.495 5.25 -4.875 5.25 C-5.4375 3.3125 -5.4375 3.3125 -5.875 1.25 C-4.21733202 -0.40766798 -2.27153595 0.03950497 0 0 Z M-0.875 9.25 C-1.205 10.24 -1.535 11.23 -1.875 12.25 C-0.225 11.92 1.425 11.59 3.125 11.25 C3.125 10.59 3.125 9.93 3.125 9.25 C1.805 9.25 0.485 9.25 -0.875 9.25 Z " fill="#A1244F" transform="translate(112.875,21.75)"/>
<path d="M0 0 C1.98 0 3.96 0 6 0 C6 4.29 6 8.58 6 13 C4.35 13.66 2.7 14.32 1 15 C0.34 13.68 -0.32 12.36 -1 11 C-2.32 11 -3.64 11 -5 11 C-7.28239171 13.92321965 -7.28239171 13.92321965 -9 17 C-9.99 16.67 -10.98 16.34 -12 16 C-11.41018767 9.74798928 -11.41018767 9.74798928 -9.9375 7.0625 C-6.72427107 5.30040672 -3.6157826 5.82217463 0 6 C0 4.02 0 2.04 0 0 Z " fill="#E01D2B" transform="translate(75,16)"/>
<path d="M0 0 C0 5.28 0 10.56 0 16 C-1.98 16 -3.96 16 -6 16 C-6.33 14.35 -6.66 12.7 -7 11 C-7.9075 11.061875 -8.815 11.12375 -9.75 11.1875 C-13.28982642 10.98327924 -14.44931155 10.35448165 -17 8 C-16.1875 6.0625 -16.1875 6.0625 -15 4 C-14.01 3.67 -13.02 3.34 -12 3 C-11.67 3.66 -11.34 4.32 -11 5 C-9.68 5 -8.36 5 -7 5 C-6.34 4.01 -5.68 3.02 -5 2 C-2 0 -2 0 0 0 Z " fill="#A4234D" transform="translate(99,27)"/>
<path d="M0 0 C2.10304477 -0.1080023 4.20766909 -0.18558987 6.3125 -0.25 C8.07013672 -0.31960937 8.07013672 -0.31960937 9.86328125 -0.390625 C13 0 13 0 14.91796875 2.015625 C15.27503906 2.67046875 15.63210937 3.3253125 16 4 C14.625 5.5 14.625 5.5 13 7 C12.34 7 11.68 7 11 7 C10.67 6.34 10.34 5.68 10 5 C8.35 5 6.7 5 5 5 C4.34 6.32 3.68 7.64 3 9 C2.01 9 1.02 9 0 9 C0 6.03 0 3.06 0 0 Z " fill="#972555" transform="translate(141,22)"/>
<path d="M0 0 C2.10353495 -0.0810206 4.20795952 -0.13919907 6.3125 -0.1875 C7.48425781 -0.22230469 8.65601563 -0.25710937 9.86328125 -0.29296875 C13 0 13 0 14.91796875 1.51171875 C15.27503906 2.00285156 15.63210937 2.49398438 16 3 C14.625 5 14.625 5 13 7 C12.34 7 11.68 7 11 7 C10.67 6.34 10.34 5.68 10 5 C6.61542745 5.60438796 4.6999822 6.93001365 2 9 C1.34 9 0.68 9 0 9 C0 6.03 0 3.06 0 0 Z " fill="#A7234B" transform="translate(123,22)"/>
<path d="M0 0 C0.66 0 1.32 0 2 0 C2 3.63 2 7.26 2 11 C0.04196493 11.05389087 -1.91648909 11.09274217 -3.875 11.125 C-4.96554688 11.14820313 -6.05609375 11.17140625 -7.1796875 11.1953125 C-10 11 -10 11 -12 9 C-9 7 -9 7 -6.5 6.6875 C-3.7574119 6.21915828 -3.7574119 6.21915828 -2.25 3.5 C-1.8375 2.675 -1.425 1.85 -1 1 C-0.67 0.67 -0.34 0.34 0 0 Z " fill="#8E265A" transform="translate(119,27)"/>
<path d="M0 0 C0 3.3 0 6.6 0 10 C-1.98 10 -3.96 10 -6 10 C-6.33663062 6.29706315 -6.47736015 4.60465619 -4.125 1.625 C-2 0 -2 0 0 0 Z " fill="#8F255A" transform="translate(99,33)"/>
<path d="M0 0 C1.37478516 0.01740234 1.37478516 0.01740234 2.77734375 0.03515625 C3.69644531 0.04417969 4.61554688 0.05320312 5.5625 0.0625 C6.27277344 0.07410156 6.98304687 0.08570312 7.71484375 0.09765625 C7.71484375 1.08765625 7.71484375 2.07765625 7.71484375 3.09765625 C4.07066635 5.52710785 2.00243103 5.259452 -2.28515625 5.09765625 C-2.84765625 3.16015625 -2.84765625 3.16015625 -3.28515625 1.09765625 C-2.28515625 0.09765625 -2.28515625 0.09765625 0 0 Z " fill="#BD213F" transform="translate(110.28515625,21.90234375)"/>
<path d="M0 0 C0 2.64 0 5.28 0 8 C-1.65 8.66 -3.3 9.32 -5 10 C-5.66 8.35 -6.32 6.7 -7 5 C-1.125 0 -1.125 0 0 0 Z " fill="#D21F33" transform="translate(81,21)"/>
<path d="M0 0 C0.66 1.32 1.32 2.64 2 4 C-0.97 6.475 -0.97 6.475 -4 9 C-4 6.69 -4 4.38 -4 2 C-2.68 1.34 -1.36 0.68 0 0 Z " fill="#752968" transform="translate(145,29)"/>
<path d="M0 0 C0.6875 1.8125 0.6875 1.8125 1 4 C-0.25 5.75 -0.25 5.75 -2 7 C-2.99 7 -3.98 7 -5 7 C-5.1875 4.625 -5.1875 4.625 -5 2 C-2 0 -2 0 0 0 Z " fill="#88275D" transform="translate(128,29)"/>
<path d="M0 0 C0 1.65 0 3.3 0 5 C-1.65 5.33 -3.3 5.66 -5 6 C-5 3 -5 3 -3.625 1.3125 C-2 0 -2 0 0 0 Z " fill="#A7224D" transform="translate(81,32)"/>
<path d="M0 0 C0 1.65 0 3.3 0 5 C-1.98 5 -3.96 5 -6 5 C-6 4.34 -6 3.68 -6 3 C-2.53846154 0 -2.53846154 0 0 0 Z " fill="#7C2866" transform="translate(99,38)"/>
<path d="M0 0 C0.33 0 0.66 0 1 0 C1 1.98 1 3.96 1 6 C-0.65 6 -2.3 6 -4 6 C-2.84826645 3.53199953 -1.95216435 1.95216435 0 0 Z " fill="#802762" transform="translate(120,32)"/>
</svg>
