<svg width="32" height="34" viewBox="0 0 32 34" fill="none" xmlns="http://www.w3.org/2000/svg">
    <path d="M10.652 6.58711L20.396 16.8955L10.652 27.2039C10.4775 27.388 10.3799 27.6353 10.3799 27.8927C10.3799 28.1502 10.4775 28.3974 10.652 28.5816C10.7367 28.6708 10.8378 28.7416 10.9494 28.79C11.0611 28.8384 11.1809 28.8633 11.302 28.8633C11.423 28.8633 11.5429 28.8384 11.6545 28.79C11.7661 28.7416 11.8672 28.6708 11.952 28.5816L22.32 17.6153C22.502 17.4227 22.6039 17.1644 22.6039 16.8955C22.6039 16.6266 22.502 16.3683 22.32 16.1757L11.954 5.20936C11.8692 5.11955 11.7678 5.04817 11.6558 4.99943C11.5438 4.95069 11.4235 4.92558 11.302 4.92558C11.1804 4.92558 11.0601 4.95069 10.9481 4.99943C10.8361 5.04817 10.7348 5.11955 10.65 5.20936C10.4755 5.39354 10.3779 5.64078 10.3779 5.89824C10.3779 6.15569 10.4755 6.40294 10.65 6.58711L10.652 6.58711Z" fill="#444444"/>
</svg>
