<svg width="24" height="24" viewBox="0 0 24 24" fill="none" xmlns="http://www.w3.org/2000/svg">
    <g clip-path="url(#clip0_2629_16)">
        <path fill-rule="evenodd" clip-rule="evenodd" d="M23.448 1.90308C23.5003 1.77247 23.5131 1.62938 23.4848 1.49155C23.4565 1.35373 23.3884 1.22724 23.2889 1.12775C23.1895 1.02827 23.063 0.96017 22.9251 0.931898C22.7873 0.903626 22.6442 0.916425 22.5136 0.968708L1.6023 9.33352H1.60086L0.95111 9.59227C0.828046 9.64136 0.720945 9.72351 0.641639 9.82965C0.562332 9.93578 0.513906 10.0618 0.501709 10.1937C0.489513 10.3256 0.514021 10.4584 0.572526 10.5772C0.631031 10.6961 0.721256 10.7965 0.833235 10.8673L1.42261 11.2411L1.42405 11.244L8.60436 15.8123L13.1727 22.9926L13.1756 22.9955L13.5494 23.5849C13.6204 23.6964 13.7209 23.7862 13.8396 23.8444C13.9584 23.9025 14.091 23.9267 14.2226 23.9144C14.3543 23.9021 14.48 23.8536 14.5859 23.7744C14.6919 23.6953 14.7739 23.5884 14.823 23.4656L23.448 1.90308ZM20.813 4.61996L21.4901 2.92658L19.7967 3.60365L9.02411 14.3763L9.50998 14.6853C9.59915 14.742 9.67473 14.8175 9.73136 14.9067L10.0404 15.3926L20.813 4.61996Z" fill="#2E2E2E"/>
    </g>
    <defs>
        <clipPath id="clip0_2629_16">
            <rect width="23" height="23" fill="white" transform="translate(0.5 0.916992)"/>
        </clipPath>
    </defs>
</svg>
