<svg version="1.1" xmlns="http://www.w3.org/2000/svg" xmlns:xlink="http://www.w3.org/1999/xlink" x="0px" y="0px" viewBox="0 0 32 32" style="enable-background:new 0 0 32 32;" xml:space="preserve">
<style type="text/css">
	.st0{display:none;}
	.st1{display:inline;}
	.st2{fill:none;}
</style>
<g id="Grid" class="st0">
</g>
<g id="Chat_Bubble">
</g>
<g id="Destination">
</g>
<g id="Money">
</g>
<g id="Calendar">
</g>
<g id="Passport_1_">
</g>
<g id="Wallet">
</g>
<g id="Taxi">
</g>
<g id="Ticket">
	<path d="M27.68,6.29H4.32c-1.775,0-3.22,1.444-3.22,3.22v2.315c0,0.862,0.601,1.607,1.463,1.811C3.662,13.895,4.43,14.867,4.43,16
		c0,1.132-0.768,2.105-1.868,2.365C1.701,18.568,1.1,19.313,1.1,20.175v2.315c0,1.775,1.444,3.22,3.22,3.22h23.36
		c1.775,0,3.221-1.444,3.221-3.22V9.51C30.9,7.734,29.455,6.29,27.68,6.29z M12.98,23.91h-1.8v-2.1c0-0.5,0.41-0.9,0.9-0.9
		c0.5,0,0.9,0.4,0.9,0.9V23.91z M12.98,17.94c0,0.49-0.4,0.9-0.9,0.9c-0.49,0-0.9-0.41-0.9-0.9v-3.88c0-0.49,0.41-0.9,0.9-0.9
		c0.5,0,0.9,0.41,0.9,0.9V17.94z M12.98,10.19c0,0.5-0.4,0.9-0.9,0.9c-0.49,0-0.9-0.4-0.9-0.9v-2.1h1.8V10.19z M22.152,19.003h-5.11
		c-0.497,0-0.9-0.403-0.9-0.9s0.403-0.9,0.9-0.9h5.11c0.497,0,0.9,0.403,0.9,0.9S22.649,19.003,22.152,19.003z M25.042,14.796h-8
		c-0.497,0-0.9-0.403-0.9-0.9s0.403-0.9,0.9-0.9h8c0.497,0,0.9,0.403,0.9,0.9S25.539,14.796,25.042,14.796z" id="id_101"></path>
</g>
<g id="Profile">
</g>
<g id="Plane">
</g>
<g id="Compass">
</g>
<g id="Hotel">
</g>
<g id="Booking">
</g>
<g id="Camera">
</g>
<g id="Luggage">
</g>
<g id="Help">
</g>
<g id="Notification">
</g>
<g id="Weather">
</g>
<g id="Travel_Guide">
</g>
<g id="Placeholder">
</g>
<g id="Credit_Card">
</g>
<g id="Review">
</g>
<g id="Global_Search">
</g>
<g id="Travel_Bag">
</g>
<g id="Globe">
</g>
</svg>