<svg width="32" height="32" viewBox="0 0 32 32" fill="none" xmlns="http://www.w3.org/2000/svg">
<path d="M7.48445 28.9778C6.01442 28.978 4.60326 28.4001 3.55557 27.369L3.44001 27.2534C2.91361 26.7398 2.49535 26.1259 2.20988 25.4481C1.9244 24.7703 1.77749 24.0422 1.77779 23.3067C1.77593 22.5105 1.93211 21.7218 2.23727 20.9863C2.54244 20.2509 2.99052 19.5833 3.55557 19.0223L17.3333 5.39562C18.7332 3.93808 20.6496 3.08873 22.6697 3.03054C24.6898 2.97235 26.6519 3.70997 28.1333 5.08451C28.8015 5.75099 29.3303 6.54381 29.6889 7.41674C30.0476 8.28967 30.2289 9.22525 30.2222 10.169C30.2143 11.2229 29.9982 12.2649 29.5864 13.2351C29.1745 14.2053 28.575 15.0845 27.8222 15.8223L15.44 28.089C15.363 28.1925 15.2645 28.278 15.1511 28.3396C15.0377 28.4012 14.9123 28.4374 14.7836 28.4457C14.6548 28.454 14.5258 28.4341 14.4055 28.3875C14.2852 28.3409 14.1765 28.2687 14.0869 28.1758C13.9974 28.083 13.9291 27.9717 13.8868 27.8498C13.8445 27.728 13.8293 27.5983 13.8422 27.4699C13.8551 27.3416 13.8957 27.2175 13.9614 27.1065C14.027 26.9954 14.116 26.8999 14.2222 26.8267L26.5689 14.5601C27.1553 13.9877 27.6228 13.3051 27.9447 12.5516C28.2665 11.798 28.4364 10.9883 28.4445 10.169C28.4509 9.45984 28.3158 8.75656 28.0472 8.10027C27.7786 7.44397 27.3818 6.84783 26.88 6.34673C25.7314 5.30039 24.218 4.74675 22.6653 4.80493C21.1126 4.86312 19.6449 5.52847 18.5778 6.65784L4.84445 20.2845C4.43975 20.6775 4.11735 21.1471 3.89606 21.666C3.67477 22.1849 3.55902 22.7426 3.55557 23.3067C3.55367 23.802 3.65012 24.2928 3.83932 24.7506C4.02853 25.2083 4.30673 25.624 4.65779 25.9734L4.77334 26.089C5.56868 26.8213 6.61979 27.2121 7.70041 27.1772C8.78102 27.1423 9.80472 26.6845 10.5511 25.9023L22.4178 14.169C22.6422 13.9421 22.8191 13.6727 22.9382 13.3766C23.0572 13.0805 23.116 12.7636 23.1111 12.4445C23.1131 12.1674 23.0598 11.8926 22.9545 11.6362C22.8492 11.3798 22.694 11.147 22.4978 10.9512C22.0489 10.5395 21.4561 10.3209 20.8475 10.3426C20.2388 10.3642 19.663 10.6243 19.2445 11.0667L11.0667 19.1734C10.8993 19.3396 10.6727 19.4325 10.4369 19.4317C10.201 19.4308 9.9751 19.3363 9.8089 19.169C9.6427 19.0016 9.54979 18.775 9.55063 18.5391C9.55146 18.3033 9.64596 18.0774 9.81334 17.9112L18.0267 9.77784C18.7795 9.00658 19.8054 8.56219 20.883 8.54058C21.9606 8.51896 23.0035 8.92184 23.7867 9.66229C24.1469 10.029 24.43 10.464 24.6193 10.9419C24.8086 11.4197 24.9003 11.9307 24.8889 12.4445C24.8879 12.9979 24.7766 13.5455 24.5614 14.0552C24.3462 14.565 24.0314 15.0268 23.6356 15.4134L11.8045 27.1823C10.6577 28.3272 9.10493 28.9726 7.48445 28.9778Z" fill="#2F3294"/>
</svg>
