<svg width="13" height="16" viewBox="0 0 13 16" fill="none" xmlns="http://www.w3.org/2000/svg">
<path fill-rule="evenodd" clip-rule="evenodd" d="M7.57833 15.3773C9.30102 13.7947 12.8298 10.1155 12.8298 6.53135C12.8298 3.33381 10.0649 0.741699 6.65415 0.741699C3.24344 0.741699 0.478516 3.33381 0.478516 6.53135C0.478516 10.1155 4.00729 13.7947 5.72995 15.3773C6.25897 15.8634 7.04931 15.8634 7.57833 15.3773ZM6.65415 9.23319C7.9332 9.23319 8.97001 8.19634 8.97001 6.91733C8.97001 5.63832 7.9332 4.60147 6.65415 4.60147C5.37514 4.60147 4.33829 5.63832 4.33829 6.91733C4.33829 8.19634 5.37514 9.23319 6.65415 9.23319Z" fill="#FFAE00"/>
</svg>
