<svg width="107" height="88" viewBox="0 0 107 88" fill="none" xmlns="http://www.w3.org/2000/svg">
    <g clip-path="url(#clip0_4_177)">
        <path d="M80.158 0H67.5418V16.6265C62.2966 12.792 55.9693 10.7286 49.4755 10.7349C45.3713 10.7277 41.3079 11.5501 37.5285 13.153C33.8828 14.6953 30.5707 16.9317 27.7758 19.7381C24.9729 22.5369 22.739 25.8541 21.1982 29.5055C19.598 33.291 18.7769 37.3609 18.784 41.4717C18.7769 45.5825 19.598 49.6524 21.1982 53.4379C22.7381 57.0892 24.9705 60.4066 27.7717 63.2063C30.567 66.0121 33.8791 68.2481 37.5245 69.7904C41.3039 71.3933 45.3673 72.2157 49.4715 72.2085C53.5757 72.2157 57.6391 71.3932 61.4185 69.7904C65.0637 68.2483 68.3755 66.0123 71.1702 63.2063C73.9721 60.407 76.2049 57.0895 77.7448 53.4379C79.345 49.6524 80.1661 45.5825 80.159 41.4717V36.0128H67.5428V41.4717C67.5428 51.4525 59.4362 59.5671 49.4765 59.5671C39.5168 59.5671 31.4102 51.4474 31.4102 41.4717C31.4102 31.496 39.5168 23.3764 49.4816 23.3764H80.164L80.158 0Z" fill="white"/>
        <path d="M101.971 23.3723H80.158V36.0087H101.971V23.3723Z" fill="#ED1C24"/>
        <path d="M80.1579 0H67.5417V23.3723H80.1579V0Z" fill="#ED1C24"/>
        <path d="M5.54404 85.8842H4.22389V84.6185C3.86054 85.5499 3.24554 86.0153 2.3789 86.0146C1.61117 86.0146 1.02275 85.6941 0.613651 85.0532C0.204551 84.4123 0 83.616 0 82.6644C0 81.7802 0.212625 81.0089 0.637873 80.3504C0.825521 80.0388 1.09286 79.7831 1.41225 79.6096C1.73164 79.4361 2.09149 79.3513 2.4546 79.3638C3.26203 79.3638 3.82151 79.7321 4.13305 80.4687V77.4157H5.54606L5.54404 85.8842ZM4.13103 82.1873C4.13103 81.6818 4.01093 81.2825 3.7687 80.9984C3.65495 80.8601 3.51119 80.7496 3.34835 80.6753C3.18552 80.601 3.00791 80.5649 2.82905 80.5698C2.63219 80.5657 2.43777 80.614 2.26574 80.71C2.0937 80.8059 1.95023 80.9459 1.85003 81.1157C1.61453 81.4796 1.49678 82.0235 1.49678 82.7473C1.49678 84.1451 1.93414 84.8439 2.80886 84.8439C2.98589 84.8415 3.1602 84.7999 3.31933 84.7221C3.47845 84.6443 3.61845 84.5323 3.72933 84.3941C4.00213 84.0746 4.14451 83.6637 4.128 83.2437L4.13103 82.1873Z" fill="white"/>
        <path d="M9.68123 86.0146C8.75605 86.0146 8.04954 85.6816 7.56172 85.0158C7.07527 84.3528 6.81865 83.5487 6.83099 82.7261C6.83099 81.8001 7.10014 81.0287 7.63842 80.4121C8.17671 79.7954 8.88792 79.4874 9.77206 79.4881C10.1612 79.4773 10.548 79.5523 10.905 79.7077C11.262 79.8632 11.5806 80.0954 11.8381 80.3878C12.3764 80.9876 12.6455 81.767 12.6455 82.7261C12.6455 83.7147 12.3656 84.51 11.8058 85.1118C11.246 85.7136 10.5378 86.0146 9.68123 86.0146ZM9.73068 84.848C10.6801 84.848 11.1551 84.1386 11.1558 82.72C11.1558 82.0791 11.0421 81.5736 10.8147 81.2036C10.5872 80.8336 10.2384 80.6486 9.76803 80.6486C9.2802 80.6486 8.91888 80.8397 8.68405 81.2218C8.44922 81.6039 8.33147 82.1118 8.3308 82.7453C8.3308 83.428 8.45561 83.9489 8.70524 84.3081C8.81567 84.4786 8.96797 84.6177 9.14754 84.7123C9.3271 84.8068 9.5279 84.8535 9.73068 84.848Z" fill="white"/>
        <path d="M17.5535 83.5823L18.7647 83.7067C18.6072 84.4931 18.3044 85.0744 17.8563 85.4505C17.399 85.8292 16.8205 86.0295 16.2273 86.0146C15.364 86.0146 14.7003 85.6992 14.236 85.0683C13.7717 84.4375 13.5392 83.6652 13.5386 82.7513C13.5386 81.8078 13.7926 81.0281 14.3006 80.4121C14.8086 79.7961 15.4858 79.4881 16.3323 79.4881C17.6948 79.4881 18.5063 80.2079 18.7667 81.6474L17.5556 81.8142C17.4486 81.0365 17.0667 80.648 16.41 80.6486C16.193 80.6372 15.9776 80.691 15.7913 80.803C15.605 80.9151 15.4563 81.0802 15.3644 81.2774C15.1351 81.7513 15.0233 82.2735 15.0384 82.7999C15.0384 83.4327 15.1511 83.9206 15.3765 84.2637C15.4744 84.4256 15.6134 84.5586 15.7794 84.6492C15.9453 84.7397 16.1323 84.7846 16.3212 84.7792C16.9402 84.7799 17.351 84.3809 17.5535 83.5823Z" fill="white"/>
        <path d="M22.7505 84.7802V85.8842C22.4295 85.9619 22.1015 86.0076 21.7715 86.0206C21.4315 86.0303 21.0947 85.9524 20.7935 85.7942C20.5335 85.6564 20.3239 85.4394 20.195 85.1745C20.0698 84.9117 20.0069 84.5073 20.0063 83.9614V80.7164H19.2261V79.6185H20.088L20.2182 77.9869L21.3759 77.8858V79.6226H22.6334V80.7204H21.3759V83.7794C21.3759 84.1717 21.4472 84.4392 21.5898 84.5821C21.7321 84.7256 22.0016 84.7964 22.3973 84.7964C22.5103 84.7924 22.6264 84.7883 22.7505 84.7802Z" fill="white"/>
        <path d="M26.1568 86.0146C25.2323 86.0146 24.5258 85.6816 24.0373 85.0158C23.5512 84.3526 23.2946 83.5486 23.3065 82.7261C23.3065 81.8001 23.5757 81.0287 24.114 80.4121C24.6523 79.7954 25.3635 79.4874 26.2476 79.4881C26.6368 79.4773 27.0236 79.5523 27.3806 79.7077C27.7376 79.8632 28.0561 80.0954 28.3136 80.3878C28.8519 80.9876 29.1211 81.767 29.1211 82.7261C29.1211 83.7147 28.8412 84.51 28.2813 85.1118C27.7215 85.7136 27.0133 86.0146 26.1568 86.0146ZM26.2062 84.848C27.1556 84.848 27.6307 84.1386 27.6314 82.72C27.6314 82.0791 27.5176 81.5736 27.2902 81.2036C27.0628 80.8336 26.7139 80.6486 26.2436 80.6486C25.7558 80.6486 25.3944 80.8397 25.1596 81.2218C24.9248 81.6039 24.807 82.1118 24.8064 82.7453C24.8064 83.428 24.9315 83.9489 25.1818 84.3081C25.2921 84.4785 25.4442 84.6176 25.6236 84.7121C25.803 84.8067 26.0036 84.8534 26.2062 84.848Z" fill="white"/>
        <path d="M31.831 85.8842H30.418V79.6165H31.6947V81.1116C31.8764 80.5287 32.126 80.1027 32.4436 79.8338C32.7612 79.5649 33.0875 79.4301 33.4226 79.4295C33.468 79.4295 33.5296 79.4295 33.6083 79.4355V80.9519C32.8897 80.9519 32.4137 81.1814 32.1802 81.6404C31.9596 82.0507 31.8399 82.5078 31.831 82.9737V85.8842Z" fill="white"/>
        <path d="M36.9967 86.0146C36.0715 86.0146 35.365 85.6816 34.8771 85.0158C34.3907 84.3528 34.1341 83.5487 34.1464 82.7261C34.1464 81.8001 34.4156 81.0287 34.9539 80.4121C35.4921 79.7954 36.2034 79.4874 37.0875 79.4881C37.4765 79.4773 37.8631 79.5523 38.22 79.7078C38.5768 79.8633 38.8952 80.0954 39.1525 80.3878C39.6908 80.9876 39.9599 81.7671 39.9599 82.7261C39.9599 83.7148 39.6804 84.51 39.1212 85.1118C38.8521 85.4057 38.5232 85.6384 38.1567 85.7941C37.7902 85.9498 37.3946 86.025 36.9967 86.0146ZM37.0461 84.848C37.9955 84.848 38.4702 84.1387 38.4702 82.72C38.4702 82.0791 38.3568 81.5736 38.1301 81.2036C37.9033 80.8336 37.5545 80.6486 37.0835 80.6486C36.5956 80.6486 36.2343 80.8397 35.9995 81.2218C35.7647 81.604 35.6469 82.1118 35.6462 82.7453C35.6462 83.428 35.771 83.9489 36.0207 84.3081C36.1309 84.4783 36.2829 84.6173 36.4621 84.7118C36.6413 84.8063 36.8417 84.8532 37.0441 84.848H37.0461Z" fill="white"/>
        <path d="M46.4355 85.8842H45.0225V81.9699C45.0225 81.5568 44.9277 81.2454 44.7379 81.0358C44.6529 80.9367 44.5474 80.8574 44.4287 80.8033C44.31 80.7491 44.181 80.7216 44.0506 80.7224C43.6832 80.7224 43.3609 80.8838 43.0837 81.2067C42.8065 81.5295 42.6682 82.0154 42.6689 82.6644V85.8842H41.2559V79.6165H42.5437V81.0752C42.9939 80.0212 43.6257 79.4938 44.4392 79.4932C44.9593 79.4808 45.4645 79.6673 45.8522 80.0148C46.2431 80.3612 46.4382 80.9711 46.4376 81.8445L46.4355 85.8842Z" fill="white"/>
        <path d="M53.3048 88H51.8373V84.7802C51.5008 85.6031 50.9205 86.0146 50.0962 86.0146C49.3043 86.0146 48.7108 85.6901 48.3158 85.0411C47.9119 84.3562 47.7071 83.5719 47.7244 82.7766C47.7244 81.8082 47.9555 81.0179 48.4178 80.406C48.88 79.7941 49.5193 79.4881 50.3354 79.4881C51.0998 79.4881 51.7108 79.8231 52.1683 80.493L52.5468 79.6185H53.3017L53.3048 88ZM51.8373 82.2054C51.8447 81.8245 51.7473 81.4489 51.5557 81.1197C51.3669 80.8053 51.0611 80.6486 50.6352 80.6486C50.4252 80.6405 50.2168 80.6888 50.0317 80.7885C49.8466 80.8882 49.6915 81.0357 49.5825 81.2157C49.3389 81.5952 49.2171 82.1111 49.2171 82.7635C49.2171 83.434 49.342 83.9553 49.5916 84.3273C49.8412 84.6994 50.1581 84.8854 50.5423 84.8854C50.8936 84.8854 51.1964 84.7273 51.4507 84.4113C51.705 84.0952 51.8332 83.6618 51.8352 83.1112L51.8373 82.2054Z" fill="white"/>
        <path d="M60.1425 85.8842H58.8305V84.5316C58.4765 85.5202 57.8181 86.0146 56.8553 86.0146C56.2854 86.0146 55.8332 85.8377 55.4988 85.4839C55.1644 85.13 54.9962 84.637 54.9941 84.0049V79.6185H56.4374V83.7036C56.4374 84.1545 56.5363 84.4504 56.7342 84.5912C56.9015 84.7207 57.1052 84.7942 57.3165 84.8015C57.622 84.8015 57.9339 84.664 58.2521 84.389C58.5704 84.1141 58.7292 83.5277 58.7285 82.63V79.6216H60.1415L60.1425 85.8842Z" fill="white"/>
        <path d="M65.8168 83.8866L67.0926 84.0605C66.9316 84.6207 66.5925 85.113 66.1267 85.4626C65.6476 85.8306 65.0467 86.0146 64.3241 86.0146C63.4574 86.0146 62.7597 85.7231 62.2308 85.1401C61.7019 84.5572 61.4375 83.767 61.4375 82.7695C61.4375 81.826 61.704 81.0426 62.2369 80.4192C62.7698 79.7958 63.4924 79.4854 64.4048 79.4881C65.2964 79.4881 65.9857 79.7941 66.4729 80.406C66.96 81.0179 67.2036 81.8038 67.2036 82.7635L67.1975 82.9252H62.905C62.8948 83.2704 62.9356 83.6151 63.0261 83.9483C63.114 84.2156 63.2817 84.4496 63.5065 84.6185C63.7638 84.8153 64.0813 84.9164 64.4048 84.9046C65.1026 84.9046 65.5732 84.5653 65.8168 83.8866ZM65.73 82.0134C65.7428 81.6067 65.5981 81.2108 65.3263 80.9085C65.2017 80.7706 65.049 80.6611 64.8786 80.5873C64.7081 80.5135 64.5238 80.4772 64.3382 80.4808C64.157 80.4767 63.977 80.5105 63.8096 80.5802C63.6422 80.6498 63.4912 80.7537 63.3663 80.8852C63.1059 81.1548 62.9528 81.5322 62.907 82.0174L65.73 82.0134Z" fill="white"/>
        <path d="M73.6399 85.8842H72.3278V84.5316C71.9719 85.5202 71.3128 86.0146 70.3506 86.0146C69.78 86.0146 69.3279 85.8377 68.9941 85.4839C68.6604 85.13 68.4922 84.637 68.4895 84.0049V79.6185H69.9328V83.7036C69.9328 84.1545 70.0317 84.4504 70.2295 84.5912C70.3969 84.7207 70.6006 84.7942 70.8119 84.8015C71.118 84.8015 71.4299 84.664 71.7475 84.389C72.0651 84.1141 72.2242 83.5277 72.2249 82.63V79.6216H73.6379L73.6399 85.8842Z" fill="white"/>
        <path d="M79.3132 83.8866L80.5889 84.0605C80.4288 84.6211 80.0895 85.1137 79.623 85.4626C79.1439 85.8306 78.5431 86.0146 77.8204 86.0146C76.9538 86.0146 76.256 85.7231 75.7271 85.1401C75.1983 84.5572 74.9338 83.767 74.9338 82.7695C74.9338 81.826 75.2003 81.0426 75.7332 80.4192C76.2661 79.7958 76.9888 79.4854 77.9012 79.4881C78.7934 79.4881 79.483 79.7941 79.9702 80.406C80.4574 81.0179 80.7009 81.8038 80.7009 82.7635L80.6949 82.9252H76.4064C76.3964 83.2703 76.4369 83.6149 76.5265 83.9483C76.6148 84.2155 76.7824 84.4493 77.0069 84.6185C77.2642 84.8153 77.5817 84.9164 77.9052 84.9046C78.6003 84.9046 79.0696 84.5653 79.3132 83.8866ZM79.2264 82.0134C79.2391 81.6067 79.0945 81.2108 78.8226 80.9085C78.697 80.7756 78.546 80.6694 78.3787 80.5959C78.2114 80.5225 78.031 80.4833 77.8484 80.4808C77.6657 80.4782 77.4844 80.5124 77.3151 80.5811C77.1458 80.6499 76.9919 80.7519 76.8626 80.8812C76.6022 81.1507 76.4495 81.5281 76.4044 82.0134H79.2264Z" fill="white"/>
        <path d="M83.4319 84.2586V85.8842H81.9019V84.2586H83.4319Z" fill="white"/>
        <path d="M88.6541 83.5823L89.8652 83.7067C89.7085 84.4931 89.4057 85.0744 88.9569 85.4505C88.4996 85.8292 87.921 86.0295 87.3279 86.0146C86.4646 86.0146 85.8008 85.6992 85.3365 85.0683C84.8723 84.4375 84.6401 83.6652 84.6401 82.7513C84.6401 81.8078 84.8941 81.0281 85.4022 80.4121C85.9102 79.7961 86.5874 79.4881 87.4339 79.4881C88.7964 79.4881 89.6075 80.2079 89.8673 81.6474L88.6561 81.8142C88.5478 81.0365 88.1656 80.648 87.5096 80.6486C87.2928 80.638 87.0779 80.6922 86.892 80.8044C86.7062 80.9166 86.5578 81.0816 86.4659 81.2784C86.237 81.7524 86.1255 82.2746 86.141 82.8009C86.141 83.4337 86.2537 83.9216 86.4791 84.2647C86.5766 84.4267 86.7154 84.5597 86.8813 84.6503C87.0471 84.7409 87.234 84.7858 87.4228 84.7802C88.0411 84.7802 88.4516 84.3809 88.6541 83.5823Z" fill="white"/>
        <path d="M93.3988 86.0146C92.4736 86.0146 91.7671 85.6816 91.2792 85.0158C90.7928 84.3528 90.5362 83.5487 90.5485 82.7261C90.5485 81.8001 90.8177 81.0287 91.356 80.4121C91.8942 79.7954 92.6058 79.4874 93.4906 79.4881C93.8796 79.4774 94.2662 79.5524 94.623 79.7079C94.9799 79.8633 95.2983 80.0955 95.5556 80.3878C96.0939 80.9876 96.363 81.767 96.363 82.7261C96.363 83.7147 96.0835 84.51 95.5243 85.1118C95.2551 85.4058 94.926 85.6385 94.5594 85.7942C94.1927 85.95 93.7969 86.0251 93.3988 86.0146ZM93.4482 84.848C94.3976 84.848 94.8723 84.1386 94.8723 82.72C94.8723 82.0791 94.7589 81.5736 94.5322 81.2036C94.3054 80.8336 93.9562 80.6486 93.4845 80.6486C92.9981 80.6486 92.6367 80.8397 92.4006 81.2218C92.1644 81.6039 92.0477 82.1118 92.0503 82.7453C92.0503 83.428 92.1752 83.9489 92.4248 84.3081C92.535 84.4783 92.6869 84.6174 92.8661 84.7119C93.0453 84.8064 93.2458 84.8533 93.4482 84.848Z" fill="white"/>
        <path d="M107 85.8842H105.519V81.9851C105.519 81.1763 105.16 80.772 104.443 80.772C104.252 80.7652 104.062 80.8032 103.888 80.8829C103.714 80.9625 103.561 81.0817 103.441 81.2309C103.192 81.5376 103.067 81.9948 103.067 82.6027V85.8902H101.568V81.9851C101.568 81.1622 101.232 80.7507 100.559 80.7507C100.36 80.7492 100.164 80.7931 99.9856 80.8791C99.8068 80.9651 99.65 81.091 99.5273 81.2471C99.2487 81.5773 99.1095 82.0282 99.1095 82.5997V85.8872H97.6541V79.6195H99.0227V80.9529C99.4688 79.9777 100.164 79.4898 101.11 79.4891C102.03 79.4891 102.629 79.9771 102.906 80.9529C103.41 79.9777 104.106 79.4898 104.994 79.4891C105.599 79.4891 106.084 79.6775 106.449 80.0542C106.63 80.2385 106.773 80.4577 106.867 80.6984C106.962 80.9392 107.007 81.1967 107 81.4553V85.8842Z" fill="white"/>
    </g>
    <defs>
        <clipPath id="clip0_4_177">
            <rect width="107" height="88" fill="white"/>
        </clipPath>
    </defs>
</svg>
