<svg width="21" height="21" viewBox="0 0 21 21" fill="none" xmlns="http://www.w3.org/2000/svg">
<path d="M10.4734 0.974609C8.56975 0.974609 6.70885 1.53911 5.12603 2.59671C3.54321 3.65432 2.30955 5.15754 1.58105 6.91628C0.852559 8.67502 0.661952 10.6103 1.03333 12.4774C1.40472 14.3444 2.32141 16.0594 3.66749 17.4055C5.01357 18.7516 6.72858 19.6683 8.59565 20.0397C10.4627 20.4111 12.398 20.2204 14.1567 19.4919C15.9155 18.7635 17.4187 17.5298 18.4763 15.947C19.5339 14.3641 20.0984 12.5033 20.0984 10.5996C20.0984 8.0469 19.0843 5.59874 17.2793 3.79371C15.4743 1.98867 13.0261 0.974609 10.4734 0.974609ZM9.09839 14.4427L5.66089 11.0052L6.75402 9.91211L9.09839 12.2565L14.1928 7.16211L15.29 8.25248L9.09839 14.4427Z" fill="#2E3192"/>
</svg>
