<svg width="13" height="14" viewBox="0 0 13 14" fill="none" xmlns="http://www.w3.org/2000/svg">
<path d="M6.56139 0.334961C5.30578 0.334961 4.07836 0.707294 3.03435 1.40488C1.99035 2.10246 1.17665 3.09396 0.696144 4.25399C0.215641 5.41403 0.0899199 6.6905 0.334878 7.92199C0.579836 9.15347 1.18447 10.2847 2.07232 11.1725C2.96018 12.0604 4.09137 12.665 5.32286 12.91C6.55435 13.1549 7.83082 13.0292 8.99085 12.5487C10.1509 12.0682 11.1424 11.2545 11.84 10.2105C12.5376 9.16649 12.9099 7.93907 12.9099 6.68346C12.9099 4.99973 12.241 3.38497 11.0505 2.19439C9.85988 1.00382 8.24512 0.334961 6.56139 0.334961ZM5.65446 9.21832L3.38714 6.951L4.10815 6.22999L5.65446 7.77631L9.01463 4.41614L9.73836 5.13533L5.65446 9.21832Z" fill="#00C165"/>
</svg>
